<svg version="1.1" id="Layer_1" xmlns="http://www.w3.org/2000/svg" x="0" y="0" width="841.9" height="282" viewBox="0 0 841.9 282" xml:space="preserve"><path d="M191.1 103.3c-14.3 22-36.5 36.5-61.1 39.3 13-22.2 29.3-45.7 51.6-61.1 4.1-2.4 9.5-4.7 14.4-2.4 2.8 1.8 3 5.6 2.5 8.7-1.3 5.6-4.5 10.4-7.4 15.5m15.3-9.8c1.2-5.2.4-13.5-6.3-17.7-8-5.4-20.5 0-22.3.4-29.5 11.3-57.3 38.3-75.2 65.6-7.3-.9-14.5-4.7-18.3-11.5-6.6-13.3.4-27.1 8.7-37.3 10.7-13.5 26.4-19.6 43.4-16.3.3-1.1.5-1.9.9-3.2-16.8-3.6-37.1-3.3-50.1 8.5-11.2 10-18.6 23.5-15.3 38.7 2.5 13.1 16.4 22.8 28.6 25.2-5.9 11.6-12 23.1-11 37.7.8 12.8 7 25.8 19.6 31 16.6 6.7 34.6.6 47.1-10.6 11.5-10.4 19.8-24.6 16.4-39.3-1.3-4.7-5.6-8.9-10.4-10.2-8.6-2.3-17.5.4-24 6.2-8.5 8.8-11.4 20.6-9.4 30.7 1 4.3 2.7 5.8 2.7 5.8h2.7c.3-13.6 4.4-25.7 14.9-34.7 3.6-3.3 10-4.3 14.4-2.2 4.3 2.4 5.6 6.8 5.8 11.2-.7 13.4-9.2 24.6-20 33.1-8.5 5.7-20.5 9.9-30.8 4.9-4.7-2.5-7-7.9-7.4-12.1-.7-19.1 7.7-34.9 16.5-50.3 21.5-1.7 40.4-9.9 57.4-22.5 10.1-8.5 18.4-19 21.4-31.1m34 46.3c-.3-1.1-.7-4-3.3-5.4-3.9-1.7-8 .2-10.8 3-12.1 12.9-20.7 27.5-28.1 42.5-1.8 3.7-4.3 10.9-1.6 14.2 1.1 1.3 2.7 1.3 4.5.9 10.1-3.1 23-20.3 30.6-32.1 1.9-2.9 9.1-14 8.7-23.1m419.4-45.3c-.8-3.2-3.4-6.7-6.7-7.4-3.7-1.1-7.8-.2-10.7 1.8-4.3 3.2-6.6 7.5-6.6 12.5 0 3.8 2.3 7.4 5.6 9.1 3.7 1.8 8.2 1.2 11.7-1.4 4.4-3.8 7.5-9.2 6.7-14.6m43.6 46.4c-.3-2.5-1.5-5.9-4.7-6.7-4.6-1.2-8.5 2.4-11.1 5.3-9.2 11.7-19.9 28.7-24.7 47.2-.5 3.1-1 6.1 1.1 8.1 1.4 1.3 3.7 1.3 5.7.9 8.4-2.8 15.9-11.1 20.4-18.9-1-.9-1.3-3.4-1.2-4 .2-2.3 1.7-3.8 3.2-4.5.8-.4 2.6-.5 3.6 0 4.6-8.3 8.4-19.4 7.7-27.4M744 96.3c-.7-3.6-3.7-7.1-7.3-7.9-4.6-.6-8.8.7-11.9 4.1-3.7 4-5.6 10.2-3.1 15.3 1.2 2.3 3.6 3.8 6 4.3 4 .4 6-.8 8.3-1.5-2.2 5.9-7.8 11.2-13 15l1.8 3c11.4-6.9 21-18.8 19.2-32.3m16 98.8c-7.6 6.1-21.4 7.3-29.2 3.2-2.5-1-7.1-4.9-8.5-10.2-.9-5.8.6-11.5 5.8-14.7 3.1-1.9 7.1-1.5 9.9.4 2.2 1.7 2.7 4.6 2 7.4-.8 5.9-9.9 7.7-8.3 12.3.9 2 3.8 2 5.2 1.3 9.7-6 12.9-16.6 15.7-26.5 3.6-11.8.9-25.3-1.2-37-12.6 16.6-26.2 37.4-44.2 47.1-3.6 1.8-7.3 2.4-11.3 2-9.3 11.6-21.3 22.7-36.6 19.5-5.4-1-10.5-6-12.1-11.1-2.4-6.9-1.3-15.2 0-21.8-9.1 10-17.1 20.9-28 29.1-4.1 3.3-9.6 4.5-14.4 2.5-3.9-1.7-7.1-5.9-7.4-10.1-1.2-11.3 5-20.3 8.5-29.6-12.3 14.4-28.1 34.1-42.7 40.1-6.7 2.3-14.9 2-20.2-3.1-7.1-7.2-9.9-17.6-6.9-27.6l-.2-.2c-9.1 11.3-20.5 23.6-32.8 30.3-5.7 2.8-13.7 2.6-19.1-.7-7.7-5-10.7-13.2-10.7-22-.1-2.6.5-5.5.9-7.4-9.3 10.6-19.9 25.6-30.8 30.6-3.9 1.4-9.5 1.4-12.8-1.3-4.8-3.7-6-12-4-18.4 1.1-4.7 3.1-8.9 4.9-13.2l-.2-.2c-9.1 11.3-20.3 26.6-30.8 32.5-4.7 2.2-11 1.9-15.1-1.5-9.7-10.2.2-25.8 3.8-36.7-11.5 13.2-25.6 32.2-37.1 38.2-3.5 2-9.7 2.3-13.2-.2-6.2-4-6.8-11.5-5.6-18.2 2.4-10.2 8-19.1 12.8-28.3l-.2-.2c-12.4 16-30.3 39-41.3 46.1-3.9 2.5-8.8 3.6-13.8 2.4-4-1.3-7.8-4.7-8.8-9.4-3.5-14.3 13.3-32.8 20-47.8 1.2-3.2-1-5.4-.9-5.3-.7-.9-5.8-4.1-5.7-4-12.2 20.3-26.4 39.6-43.5 58.1-5.5 5.9-12.3 10.2-20.2 7.7-4.6-1.3-6.3-6.2-7-10.2-.3-2.7-.1-6-.2-8.6-8.7 10.3-19.6 23.3-34.1 18.4-4.7-1.6-8.5-5.4-9.7-10.8-3.8-23.4 12.5-43.8 31.9-55.5 7.2-4.1 17.7-6.3 25.7-2.4 3.8 2 5.8 5.9 6.4 9.8 1.7-2.7 5.2-8.9 5-8.1h19.8l-31 58c-.5 1.1-.8 3 0 4 .8 1.2 2.3 1.1 3.6.6 4.8-1.4 21.2-21.7 30.3-33.3 7.3-9.7 13.7-20 19.9-30.2-2-2.8-2.9-6.4-1.9-10 1-2.8 3.3-6.5 6.8-7 2.2 0 3.1.8 3.6 2.5 1.2 4.8-1.4 9.1-3.4 13 6.8 5.1 16.7 8.4 19.6 17.5 1.1 4.9-.8 10.2-3.4 14.4L297 189.8c-.8 1.2-.7 3-.2 3.6.6 1.6 2.7 1.4 3.8.9 7.7-3.3 19.1-17.8 27.6-27.2 26.5-32 45.3-67.3 63.7-102.6l22.4-.1-66.4 124c-.6 1.5-1 3.2-.4 4.8.6 1 1.8 1.2 3.5.7 9.2-5 26.7-26.2 38.4-40.2l16-21.9h20.5c-9.5 19.1-20.1 37.7-29.7 56.6-.3 1.2-1.4 2.2-.6 4.7.5 1.3 3.2 1.4 4.4.7 8.9-4.8 19.1-19.5 27.4-30 7.8-10.4 15.2-21.1 22.1-31.7h21.4l-.3.6-30.4 56.9c-.9 1.7-.5 3.7 1.1 4.5 2.5.9 4.3-1.3 6.1-2.5 21.4-18.6 32.8-43.7 55.9-59.7 7.2-4.4 17.5-7 25.7-3 3.7 2.4 7 6.1 7.2 10.6-.1 4.7-1.9 9.4-6.4 11.7-2.1.9-5 .9-7.2 0-2-1.1-3.4-3.2-4.1-5.1-.7-4.9 2.6-8.2 5.1-11.7.7-1.3.1-3.1-1.3-3.4-5.3-.5-8.6 5.2-11.7 8.7-9.2 14-16.3 28.8-19.5 45.2-.4 3-.4 6.4 1.9 8.7 4.1 3 9.3.3 13-1.9 27.3-17.4 36.8-51.1 66.5-63.8 7-2.4 16.1-1.9 21.5 3.8 2.7 3.3 4.2 7.4 3.1 11.9-.8 4-4.8 7.6-8.7 8.3-2.3.2-4.4-.1-6.1-1.5-2.5-2.3-3.6-5.6-2.4-8.9 1.4-4.6 8.8-8.6 3.4-10.6-5.4.1-9.2 5.8-12.2 9.6-9.1 14.6-16.4 30-18.8 47.4-.2 2.8.3 4.1 2.4 5.9 5.3 2.7 10.7-.6 13.1-2.4 18-14.3 33-32.6 46.4-50.5l6.1-8.7h20.9c-9.1 18.8-19.3 37-28.7 55.7-.9 2.1-1.5 3.7-.4 5.5 1.3 1.4 3.4.5 4.3 0 22.2-14.6 38-53.2 68.9-64.8 6.6-2.2 14.7-1.5 19.8 3.4 8.4 9.2 4.4 24 0 33.7-1.2 2.7-3 5.9-4.4 8.1 7.6 1.3 13.3-5 18.9-9.9 14.8-15 25-31.9 38-47.6.9-.9 4-3.7 6.5-3 1-.1 1.5 1.3 1.5 1.9-.2 5.5-7.9 7.5-8.7 12.7-1.2 9.3 6.8 15.4 9.6 23.4 6.8 13.4 6.5 33.7-6.5 43.8" fill="#fff"/></svg>