<svg id="Group_82" data-name="Group 82" xmlns="http://www.w3.org/2000/svg" xmlns:xlink="http://www.w3.org/1999/xlink" width="358.637" height="202.419" viewBox="0 0 358.637 202.419">
  <defs>
    <clipPath id="clip-path">
      <rect id="Rectangle_63" data-name="Rectangle 63" width="358.637" height="202.419" fill="none"/>
    </clipPath>
  </defs>
  <g id="Group_81" data-name="Group 81" clip-path="url(#clip-path)">
    <path id="Path_257" data-name="Path 257" d="M201.628,169.233q-9.283,0-14.558-4.184t-5.275-8.193a2.916,2.916,0,0,1,.7-2.04,2.524,2.524,0,0,1,1.968-.773,3.187,3.187,0,0,1,2.356,1.371,20.155,20.155,0,0,1,1.968,3.129,26.537,26.537,0,0,0,2.285,3.622,10.331,10.331,0,0,0,4.115,3.059,16.129,16.129,0,0,0,6.715,1.265,12.183,12.183,0,0,0,8.123-2.636,8.473,8.473,0,0,0,3.13-6.787,9.049,9.049,0,0,0-5.944-9.037,35.132,35.132,0,0,0-5.837-1.653q-3.2-.633-6.435-1.407a27.836,27.836,0,0,1-5.871-2.074,10.173,10.173,0,0,1-4.291-4.114,13.854,13.854,0,0,1-1.652-7.1,12.2,12.2,0,0,1,4.677-9.882q4.676-3.832,12.833-3.833,8.3,0,13.257,3.658t4.957,7.806q0,2.813-2.882,2.813a2.9,2.9,0,0,1-2.356-1.2,13.927,13.927,0,0,1-1.723-2.883,24.785,24.785,0,0,0-1.9-3.376,8.827,8.827,0,0,0-3.551-2.882,13.549,13.549,0,0,0-6.014-1.2q-5.133,0-8.018,2.672a8.891,8.891,0,0,0-2.882,6.821,8.518,8.518,0,0,0,1.653,5.416,9.552,9.552,0,0,0,4.325,3.094,41.451,41.451,0,0,0,5.872,1.653q3.2.669,6.4,1.512a29.042,29.042,0,0,1,5.872,2.215,10.441,10.441,0,0,1,4.325,4.289,14.456,14.456,0,0,1,1.653,7.209,11.62,11.62,0,0,1-5.2,9.915,21.4,21.4,0,0,1-12.8,3.727" transform="translate(2.194 1.424)" fill="#1d1d1b"/>
    <path id="Path_258" data-name="Path 258" d="M258.626,163.494a3.464,3.464,0,0,0,1.336,2.391q1.195.987,1.2,1.547v.281q0,.844-1.407.844h-8.44q-1.406,0-1.406-.844v-.281a1.323,1.323,0,0,1,.668-.985,9.825,9.825,0,0,0,1.3-1.16,2.185,2.185,0,0,0,.564-1.724l-.7-14.346q-.281-6.047-2.6-9.212a7.168,7.168,0,0,0-6.047-3.165,8.117,8.117,0,0,0-6.33,2.743,10.026,10.026,0,0,0-2.461,6.962v17.089a2.728,2.728,0,0,0,1.407,2.285q1.4.949,1.406,1.512v.212q0,.914-1.477.914h-8.791q-1.336,0-1.336-.914v-.212q0-.562,1.3-1.512a2.773,2.773,0,0,0,1.3-2.285V123.9a2.775,2.775,0,0,0-.668-1.934,7.726,7.726,0,0,0-1.337-1.2q-.668-.457-.668-.879v-.211q0-.773.986-1.2l5.766-2.532a1.817,1.817,0,0,1,1.477-.175,1.059,1.059,0,0,1,.564,1.09l-.142,22.785a11.7,11.7,0,0,1,10.479-5.555,12.225,12.225,0,0,1,9.177,3.833q3.692,3.833,4.113,11.427Z" transform="translate(2.721 1.396)" fill="#1d1d1b"/>
    <path id="Path_259" data-name="Path 259" d="M284.506,169.041a17.548,17.548,0,0,1-13.256-5.309,17.767,17.767,0,0,1-5.1-12.764,16.76,16.76,0,0,1,17.09-17.089,17.132,17.132,0,0,1,12.834,5.169,18.631,18.631,0,0,1,.387,25.036,15.642,15.642,0,0,1-11.956,4.958m.844-2.321a8.311,8.311,0,0,0,6.857-3.516q2.707-3.516,2.707-9.354A21.585,21.585,0,0,0,291.4,141.3q-3.517-5.1-8.861-5.1a8.964,8.964,0,0,0-7.314,3.48q-2.813,3.483-2.813,9.318a21.383,21.383,0,0,0,3.657,12.378q3.656,5.345,9.283,5.345" transform="translate(3.212 1.616)" fill="#1d1d1b"/>
    <path id="Path_260" data-name="Path 260" d="M326.07,133.879a15.581,15.581,0,0,1,11.428,4.748,16.7,16.7,0,0,1,4.747,12.342,18.515,18.515,0,0,1-4.677,12.9,14.832,14.832,0,0,1-11.428,5.17,12.741,12.741,0,0,1-10.407-4.853v15.12a2.47,2.47,0,0,0,.7,1.828,9.727,9.727,0,0,0,1.372,1.161,1.236,1.236,0,0,1,.668.949v.21q0,.914-1.407.915h-8.65q-1.477,0-1.478-.915v-.21a1.108,1.108,0,0,1,.422-.809,5.76,5.76,0,0,1,.879-.668,3.012,3.012,0,0,0,.879-.915,2.727,2.727,0,0,0,.422-1.546V142.037a2.907,2.907,0,0,0-1.407-2.356q-1.407-1.019-1.407-1.582v-.212q0-.844,1.125-1.266l5.063-2.461q1.967-.912,1.969.985l-.071,4.641a11.4,11.4,0,0,1,4.606-4.325,13.972,13.972,0,0,1,6.646-1.583m-.773,32.912a9.281,9.281,0,0,0,7.771-3.833q2.918-3.832,2.919-10.3,0-7.313-3.165-11.92a9.66,9.66,0,0,0-8.3-4.606,8.5,8.5,0,0,0-5.8,2.285,8.716,8.716,0,0,0-2.989,5.521v12.025a11.049,11.049,0,0,0,2.919,7.525,8.685,8.685,0,0,0,6.645,3.305" transform="translate(3.702 1.616)" fill="#1d1d1b"/>
    <path id="Path_261" data-name="Path 261" d="M65.373,67.819a6.048,6.048,0,0,0,.637,3.705q.932,1.9.658,2.668l-.082.232Q66.2,75.506,64.5,74.9L52.851,70.75q-1.7-.606-1.313-1.686l.083-.231q.22-.616,2.233-1.509a3.465,3.465,0,0,0,2.26-2.8L62.359,27.7,34.095,61.894a2.522,2.522,0,0,1-2.9,1.055,2.734,2.734,0,0,1-1.837-2.655l-.567-45.763L10.281,48.194a3.586,3.586,0,0,0,.133,3.657q1.072,1.992.854,2.607l-.083.232q-.384,1.082-2,.5l-7.871-2.8Q-.31,51.812.074,50.732L.157,50.5Q.4,49.806,2.3,48.873a6.362,6.362,0,0,0,2.811-2.52L26.9,7.16a3.686,3.686,0,0,0-.135-3.526q-.972-1.911-.724-2.605L26.121.8Q26.533-.359,28,.162l6.79,2.42a3.5,3.5,0,0,1,2.6,3.446l-.426,44.888L65.088,15.9a3.335,3.335,0,0,1,3.96-1.111l7.176,2.556q1.389.495,1,1.575l-.082.232a2.125,2.125,0,0,1-1.357,1.125,8.717,8.717,0,0,0-2.123,1.2,3.778,3.778,0,0,0-1.332,2.4Z" transform="translate(0 0)" fill="#1d1d1b"/>
    <path id="Path_262" data-name="Path 262" d="M108.706,78a5.4,5.4,0,0,0,.258,2.967,3.351,3.351,0,0,0,1.218,1.6,5.483,5.483,0,0,1,1.2.962,1.235,1.235,0,0,1,.35,1.178q-.478,1.993-6.93.446a8.742,8.742,0,0,1-4.421-2.111q-1.237-1.348-.807-4.194Q95.167,83.186,87.283,81.3q-6.693-1.6-10.04-5.731A10.841,10.841,0,0,1,75.267,65.7a10.516,10.516,0,0,1,6.171-7.828,17.234,17.234,0,0,1,11.189-.648q5.734,1.374,8.59,4.922l.223-1.631q1.037-7.5.008-11.284a6.336,6.336,0,0,0-5.014-4.739,5.97,5.97,0,0,0-4.465.53,8.179,8.179,0,0,0-3.022,2.772,12.209,12.209,0,0,1-2.5,2.9,3.439,3.439,0,0,1-3.151.845A4.1,4.1,0,0,1,80.7,49.863a3.558,3.558,0,0,1-.437-2.927q.915-3.823,5.709-5.37a20.54,20.54,0,0,1,11.164-.021q7.486,1.791,11.049,7.32t2.587,13.464ZM90.636,78.9a6.811,6.811,0,0,0,5.869-1.12,8.05,8.05,0,0,0,3.226-5.207l.352-2.527a8.205,8.205,0,0,0-1.012-5.969,8.2,8.2,0,0,0-10.7-2.437,8,8,0,0,0-3.435,5.2,11.717,11.717,0,0,0,.553,7.713A7.266,7.266,0,0,0,90.636,78.9" transform="translate(0.904 0.492)" fill="#1d1d1b"/>
    <path id="Path_263" data-name="Path 263" d="M152.323,45.873A8.467,8.467,0,0,1,155,46.03c.639.178,1.012.428,1.113.75a1.675,1.675,0,0,1-.13,1.157,2.513,2.513,0,0,1-1.262,1.476,10.765,10.765,0,0,1-2.656.827,21.345,21.345,0,0,0-2.3.557,15.968,15.968,0,0,1,4.037,4.75,13.4,13.4,0,0,1,1.806,5.793,15.206,15.206,0,0,1-1.983,8.786,16.473,16.473,0,0,1-6.575,6.288q10.287,1.726,10.763,9.162.343,5.4-5.008,8.979t-13.937,4.131q-8.746.557-14.04-2.674t-5.6-7.973a3.885,3.885,0,0,1,.847-2.8,3.77,3.77,0,0,1,2.833-1.288,3.452,3.452,0,0,1,2.821,1.133,13.178,13.178,0,0,1,2.122,3.025,37.266,37.266,0,0,0,2.158,3.6,9.127,9.127,0,0,0,3.514,2.976,11.869,11.869,0,0,0,12.4-1.818,7.728,7.728,0,0,0,2.268-6.26,8.742,8.742,0,0,0-2.29-5.681,7.556,7.556,0,0,0-5.44-2.279q-1.951.29-3.014.356a19.266,19.266,0,0,1-13.372-3.783,14.542,14.542,0,0,1-6.041-11.064,15.6,15.6,0,0,1,4.456-12.473q4.931-5.033,13.268-5.566,2.209-.141,6.811-.024t9.752-.212m-25.072,13.5a22.355,22.355,0,0,0,3.869,11.776q3.426,4.829,7.678,4.558a7.325,7.325,0,0,0,5.8-3.079,10.634,10.634,0,0,0,1.765-7.09A22.411,22.411,0,0,0,142.531,53.8q-3.385-4.79-8.126-4.488a6.843,6.843,0,0,0-5.511,3.018,10.891,10.891,0,0,0-1.643,7.041" transform="translate(1.424 0.553)" fill="#1d1d1b"/>
    <path id="Path_264" data-name="Path 264" d="M207.261,69.347a4.781,4.781,0,0,0,1.975,2.978q1.627,1.21,1.737,1.937l.049.325q.181,1.216-1.6,1.479l-11.829,1.758q-1.782.266-1.962-.95l-.049-.324q-.108-.729,1.18-2.37a4.084,4.084,0,0,0,.942-3.411l-3.132-15.516q-2.555-13.283-10.493-12.105a7.74,7.74,0,0,0-5.742,3.71,11.011,11.011,0,0,0-1.272,7.6l2.828,19.04a4.083,4.083,0,0,0,2.131,2.913q1.863,1.133,1.974,1.859l.048.324q.181,1.216-1.6,1.48L169.881,81.94q-1.7.252-1.881-.962l-.049-.324q-.108-.73,1.308-2.347a4.114,4.114,0,0,0,1.151-3.4l-3.225-21.713a3.523,3.523,0,0,0-1.3-2.374,11.863,11.863,0,0,0-2.058-1.309,1.693,1.693,0,0,1-1.09-1.2l-.035-.243q-.12-.809,1.241-1.675l7.293-4.975q1.211-.759,1.887-.4a1.863,1.863,0,0,1,.843,1.49l.781,5.267a12.51,12.51,0,0,1,4.172-5.92,14.7,14.7,0,0,1,7.1-2.959,14.483,14.483,0,0,1,11.17,2.731q4.931,3.657,6.835,12.564Z" transform="translate(1.963 0.467)" fill="#1d1d1b"/>
    <path id="Path_265" data-name="Path 265" d="M236.678,75.608q-10.073.213-16.263-5.8A20.242,20.242,0,0,1,214.041,55.2a19.172,19.172,0,0,1,5.593-14.456,19.9,19.9,0,0,1,14.29-6.038q9.5-.2,15.687,5.688a19.935,19.935,0,0,1,6.372,14.571A20.2,20.2,0,0,1,250.8,69.49q-5.365,5.933-14.125,6.118m1.162-3.138a7.42,7.42,0,0,0,6.309-3.78q2.38-3.7,2.242-10.165a28.059,28.059,0,0,0-4.04-14.743q-3.858-6.063-9.424-5.945A8.2,8.2,0,0,0,226,41.548q-2.5,3.618-2.362,10.25a27.578,27.578,0,0,0,4.2,14.412q4.026,6.387,10.005,6.26" transform="translate(2.583 0.419)" fill="#1d1d1b"/>
    <path id="Path_266" data-name="Path 266" d="M261.991,75.337q-1.719-.052-1.681-1.28l.007-.246q.024-.817,1.582-2.164a4.153,4.153,0,0,0,1.609-3.065l1.315-43.147a4.927,4.927,0,0,0-1.408-3.567q-1.47-1.6-1.452-2.092l.007-.246q.023-.736,1.437-1.431l8.393-3.842a2.469,2.469,0,0,1,2.174-.057,1.534,1.534,0,0,1,.734,1.456l-1.62,53.216a4.127,4.127,0,0,0,1.582,3.2q1.635,1.483,1.612,2.22l-.008.246q-.036,1.227-1.838,1.173Z" transform="translate(3.142 0.169)" fill="#1d1d1b"/>
    <path id="Path_267" data-name="Path 267" d="M287.928,76.195q-1.717-.076-1.663-1.3l.013-.327q.033-.738,1.609-2.061a4.232,4.232,0,0,0,1.657-3.123l.956-21.439a5.113,5.113,0,0,0-1.355-3.586q-1.444-1.7-1.42-2.2l.011-.246q.029-.654,1.538-1.407l8.366-3.725a2.468,2.468,0,0,1,2.174-.026,1.611,1.611,0,0,1,.71,1.548l-1.408,31.5a4.077,4.077,0,0,0,1.535,3.266q1.614,1.468,1.583,2.2l-.015.327q-.055,1.228-1.855,1.147Zm8.113-45.8a7,7,0,0,1-4.833-1.938,5.71,5.71,0,0,1-1.685-4.5,5.712,5.712,0,0,1,2.079-4.334,7,7,0,0,1,4.986-1.5,6.743,6.743,0,0,1,4.71,1.932,5.783,5.783,0,0,1,1.644,4.5,5.777,5.777,0,0,1-2.038,4.336,6.741,6.741,0,0,1-4.863,1.5" transform="translate(3.455 0.219)" fill="#1d1d1b"/>
    <path id="Path_268" data-name="Path 268" d="M342.784,71.5a5.4,5.4,0,0,0,.775,2.876,3.363,3.363,0,0,0,1.479,1.358,5.489,5.489,0,0,1,1.352.736,1.236,1.236,0,0,1,.552,1.1q-.12,2.045-6.743,1.656a8.741,8.741,0,0,1-4.723-1.3q-1.454-1.111-1.53-3.988-3.578,5.043-11.672,4.567-6.868-.4-10.89-3.878a10.836,10.836,0,0,1-3.678-9.364,10.515,10.515,0,0,1,4.7-8.792,17.238,17.238,0,0,1,10.9-2.6q5.887.345,9.322,3.336l-.069-1.645q-.295-7.566-1.975-11.11a6.335,6.335,0,0,0-5.768-3.784,5.964,5.964,0,0,0-4.3,1.307,8.174,8.174,0,0,0-2.489,3.26,12.184,12.184,0,0,1-1.957,3.29,3.438,3.438,0,0,1-2.953,1.386,4.1,4.1,0,0,1-2.842-1.192,3.561,3.561,0,0,1-.944-2.8q.232-3.924,4.677-6.29a20.538,20.538,0,0,1,10.988-1.982q7.683.449,12.162,5.266t4.912,12.8Zm-17.631,4.054a6.812,6.812,0,0,0,5.582-2.134,8.052,8.052,0,0,0,2.261-5.693l-.1-2.549a8.205,8.205,0,0,0-2.044-5.7,8.2,8.2,0,0,0-10.965-.519,8,8,0,0,0-2.468,5.722,11.715,11.715,0,0,0,1.9,7.5,7.268,7.268,0,0,0,5.834,3.377" transform="translate(3.713 0.454)" fill="#1d1d1b"/>
    <path id="Path_269" data-name="Path 269" d="M357.874,103.375s-.042-8.736-11.608-9.316c-5.951-.2-80.6-3.187-86.192-3.471h0c-49.849-3.779-83.491,11.18-83.491,11.18-5.275,1.834-10.416,4.285-15.6,6.51-1.143.49-15.018,5.356-28.564,3.422l-5.2-.821A251.812,251.812,0,0,1,65.472,92.8a2.464,2.464,0,0,0-2.2.822,3.35,3.35,0,0,0,.346,2.607A87.855,87.855,0,0,0,74.7,110.476,79.256,79.256,0,0,0,88.11,121.791a47.268,47.268,0,0,0,12.507,6.271c11.41,3.367,23.081,4.869,35.068,2.443a47.358,47.358,0,0,0,8.347-2.688c5.761-2.347,10.777-6.375,15.728-10.491a55.2,55.2,0,0,1,17.7-9.791c8.509-2.924,23.2-5.046,29.2-5.462,8.712-.6,30.013-1.212,34.786-.967,22.239,1.145,39.85,2.87,50.436,4.14,10.235,1.229,42.487,7.794,44.042,7.85,22.473,3.316,21.951-9.722,21.951-9.722m-90.92-12.37-.265-.016.265.016m9.357.569-.422-.026.422.026m-.953-.059-.525-.031.525.031m-1.43-.086-.7-.044.7.044m-1.675-.1-.871-.053.871.053" transform="translate(0.762 1.086)" fill="#ffd900"/>
    <path id="Path_270" data-name="Path 270" d="M190.519,193.333c0,2.313-1.364,3.869-3.336,3.869a2.877,2.877,0,0,1-2.5-1.349h-.089l-.075,1.2h-.637V186.528h.756v4.388a2.761,2.761,0,0,1,2.549-1.423c1.957,0,3.336,1.512,3.336,3.84m-.756,0c0-1.9-1.068-3.142-2.624-3.142-1.512,0-2.5,1.245-2.5,3.142,0,1.927.993,3.173,2.5,3.173,1.542,0,2.624-1.26,2.624-3.173" transform="translate(2.219 2.251)" fill="#1d1d1b"/>
    <path id="Path_271" data-name="Path 271" d="M191.033,199.983v-.638a3.35,3.35,0,0,0,.83.134,1.6,1.6,0,0,0,1.527-1.2l.49-1.26h-.327l-2.832-7.412h.816l2.506,6.582h.074l2.4-6.582h.816l-3.217,8.792a2.206,2.206,0,0,1-2.15,1.734,3.3,3.3,0,0,1-.934-.148" transform="translate(2.302 2.288)" fill="#1d1d1b"/>
    <path id="Path_272" data-name="Path 272" d="M214.519,189.976l-3.929,0a2.012,2.012,0,0,0-2.244-2.04q-2.33,0-2.331,3.641.008,3.387,2.5,3.391c1.233,0,1.942-.7,2.12-2.1l3.972,0a5.652,5.652,0,0,1-1.9,3.8,6.168,6.168,0,0,1-4.121,1.349,6.8,6.8,0,0,1-4.946-1.742,7.411,7.411,0,0,1-.056-9.573,6.047,6.047,0,0,1,4.571-1.807,6.981,6.981,0,0,1,4.475,1.332,5.2,5.2,0,0,1,1.884,3.759" transform="translate(2.436 2.231)" fill="#1d1d1b"/>
    <path id="Path_273" data-name="Path 273" d="M223.693,189.077a4.536,4.536,0,0,1,.553,2.317q0,3.584-2.489,3.583a2.1,2.1,0,0,1-1.839-.943,4.74,4.74,0,0,1-.645-2.644,4.643,4.643,0,0,1,.515-2.289,2.1,2.1,0,0,1,1.923-1.153,2.146,2.146,0,0,1,1.982,1.129m-6.759-2.433a6.263,6.263,0,0,0-1.772,4.7,6.657,6.657,0,0,0,1.755,4.9,6.64,6.64,0,0,0,11.469-4.843,6.273,6.273,0,0,0-1.824-4.73,7.488,7.488,0,0,0-9.628-.023" transform="translate(2.597 2.232)" fill="#1d1d1b"/>
    <path id="Path_274" data-name="Path 274" d="M237.6,189.094a4.5,4.5,0,0,1,.552,2.311q0,3.593-2.49,3.584a2.092,2.092,0,0,1-1.835-.938,4.646,4.646,0,0,1-.645-2.649,4.546,4.546,0,0,1,.513-2.284,2.087,2.087,0,0,1,1.924-1.153,2.137,2.137,0,0,1,1.981,1.13m-6.759-2.438a6.255,6.255,0,0,0-1.771,4.7,6.684,6.684,0,0,0,1.748,4.9,6.644,6.644,0,0,0,11.474-4.848,6.284,6.284,0,0,0-1.822-4.723,7.478,7.478,0,0,0-9.629-.03" transform="translate(2.765 2.232)" fill="#1d1d1b"/>
    <path id="Path_275" data-name="Path 275" d="M243.58,197.711l-.016-12.458,4.144,0,0,4.035,3.628-4.029,4.856.005-4.612,4.681,5.124,7.776-4.971-.009-3.03-4.962-.993,1.011.006,3.951Z" transform="translate(2.94 2.236)" fill="#1d1d1b"/>
    <path id="Path_276" data-name="Path 276" d="M256.935,194.013l1.16,0q.263,3.047,3.623,3.046a3.684,3.684,0,0,0,2.359-.674,2.316,2.316,0,0,0,.856-1.9c-.005-1.078-.675-1.823-2.018-2.229l-3.694-1.038a2.975,2.975,0,0,1-2-2.922,2.894,2.894,0,0,1,1.373-2.542,5.087,5.087,0,0,1,2.911-.8,4.655,4.655,0,0,1,3,.932,3.326,3.326,0,0,1,1.232,2.788l-1.13,0a2.52,2.52,0,0,0-.845-1.993,3.328,3.328,0,0,0-2.261-.726,3.917,3.917,0,0,0-2.126.537,2.028,2.028,0,0,0-.992,1.826,1.647,1.647,0,0,0,.036.383c.143.845.886,1.46,2.229,1.834l3.586,1a2.961,2.961,0,0,1,1.884,2.9,3.166,3.166,0,0,1-1.41,2.818,5.631,5.631,0,0,1-3.19.812,4.91,4.91,0,0,1-3.363-1.071,3.762,3.762,0,0,1-1.222-2.976" transform="translate(3.101 2.232)" fill="#1d1d1b"/>
    <path id="Path_277" data-name="Path 277" d="M267.967,197.739l-1.2,0-.01-12.47,1.194.005.006,5.352,7.477.006-.007-5.352,1.184.005.011,12.464h-1.183l-.006-6.113-7.475-.006Z" transform="translate(3.219 2.236)" fill="#1d1d1b"/>
    <path id="Path_278" data-name="Path 278" d="M277.432,191.547a7.129,7.129,0,0,1,1.432-4.629,5.286,5.286,0,0,1,4.358-1.946,5.52,5.52,0,0,1,4.473,1.914,8.026,8.026,0,0,1,.013,9.286,6.007,6.007,0,0,1-8.808-.01,7.017,7.017,0,0,1-1.469-4.614m5.881,5.536a4.172,4.172,0,0,0,3.573-1.672,6.259,6.259,0,0,0,1.1-3.853,6.393,6.393,0,0,0-1.108-3.91,4.246,4.246,0,0,0-3.608-1.676,4.135,4.135,0,0,0-3.54,1.69,6.373,6.373,0,0,0-1.123,3.883,6.3,6.3,0,0,0,1.118,3.868,4.235,4.235,0,0,0,3.588,1.669" transform="translate(3.348 2.232)" fill="#1d1d1b"/>
    <path id="Path_279" data-name="Path 279" d="M291.135,197.762l-1.188-.005-.016-12.463,4.61,0c2.749,0,4.127,1.166,4.122,3.494s-1.607,3.483-4.837,3.478l-2.7-.007Zm-.006-6.5,2.739,0a5.318,5.318,0,0,0,2.642-.474,2.226,2.226,0,0,0,.97-2.08q0-2.4-3.27-2.4h-3.082Z" transform="translate(3.499 2.236)" fill="#1d1d1b"/>
    <path id="Path_280" data-name="Path 280" d="M301.881,197.668l-3.716,0-.008-3.558,3.722.007Z" transform="translate(3.598 2.343)" fill="#1d1d1b"/>
  </g>
</svg>
